/* XPM */
static char * arch_xpm[] = {
"7 10 2 1",
" 	c None",
".	c #66746E",
"   .   ",
"   .   ",
"  ...  ",
"  ...  ",
"  ...  ",
" .. .. ",
" .. .. ",
"... ...",
"..   ..",
".     ."};
