/* XPM */
static char * rain_xpm[] = {
"12 13 2 1",
" 	c None",
".	c #66746E",
"    ...     ",
"   .....    ",
"   ......   ",
" .......... ",
"............",
"............",
" .......... ",
"   ......   ",
"            ",
"  .  .  .   ",
"  .  .  .   ",
" .  .  .    ",
" .  .  .    "};
