/* XPM */
static char * time_xpm[] = {
"6 6 2 1",
" 	c None",
".	c #66746E",
" .... ",
".. ...",
".. ...",
"..   .",
"......",
" .... "};
