/* XPM */
static char * volume_xpm[] = {
"8 9 2 1",
" 	c None",
".	c #66746E",
"    .  .",
"   .. . ",
"  ...   ",
".....   ",
"..... ..",
".....   ",
"  ...   ",
"   .. . ",
"    .  ."};
